<svg width="174" height="174" fill="none" xmlns="http://www.w3.org/2000/svg"><g stroke="#00B6CC" stroke-width="3" stroke-linecap="round" stroke-linejoin="round"><path d="M163.007 53.054v67.884a17 17 0 01-8.551 14.748l-59.503 34.061a17.025 17.025 0 01-16.899 0l-59.503-34.061A16.998 16.998 0 0110 120.938V53.054a17 17 0 018.551-14.748L78.054 4.244a17.026 17.026 0 0116.9 0l59.502 34.062a17.002 17.002 0 018.551 14.748zM12.466 44.239l35.786 20.656m112.29-20.656l-35.787 20.656m34.682 66.303H13.57M84.464 2.247L11.7 128.138M88.544 2.247l72.763 125.891"/><path d="M86.504 131.164L48.252 64.912h76.504l-38.252 66.252zm0 .034V172"/></g></svg>