<svg width="108" height="33" viewBox="0 0 108 33" fill="none" xmlns="http://www.w3.org/2000/svg">
<path d="M0.88 32V10.48H7.12V32H0.88ZM4 7.48C2.85333 7.48 1.92 7.14667 1.2 6.48C0.48 5.81333 0.12 4.98666 0.12 4C0.12 3.01333 0.48 2.18667 1.2 1.52C1.92 0.853331 2.85333 0.519998 4 0.519998C5.14667 0.519998 6.08 0.839998 6.8 1.48C7.52 2.09333 7.88 2.89333 7.88 3.88C7.88 4.92 7.52 5.78667 6.8 6.48C6.10667 7.14667 5.17333 7.48 4 7.48ZM21.1113 32.48C19.1646 32.48 17.2313 32.2267 15.3112 31.72C13.4179 31.1867 11.7913 30.44 10.4313 29.48L12.9913 24.52C14.0579 25.2933 15.2846 25.9067 16.6713 26.36C18.0846 26.8133 19.5113 27.04 20.9513 27.04C22.5779 27.04 23.8579 26.72 24.7913 26.08C25.7246 25.44 26.1913 24.5467 26.1913 23.4C26.1913 22.68 26.0046 22.04 25.6313 21.48C25.2579 20.92 24.5913 20.4933 23.6313 20.2C22.6979 19.9067 21.3779 19.76 19.6713 19.76H12.5113L13.9513 4H31.0313V9.2H16.2713L19.6313 6.24L18.6313 17.48L15.2713 14.52H21.1913C23.9646 14.52 26.1913 14.9067 27.8713 15.68C29.5779 16.4267 30.8179 17.4533 31.5913 18.76C32.3646 20.0667 32.7513 21.5467 32.7513 23.2C32.7513 24.8533 32.3379 26.3867 31.5113 27.8C30.6846 29.1867 29.4046 30.32 27.6713 31.2C25.9646 32.0533 23.7779 32.48 21.1113 32.48ZM43.9403 32.32C42.1003 32.32 40.327 32.1067 38.6203 31.68C36.9403 31.2267 35.607 30.6667 34.6203 30L36.7003 25.52C37.687 26.1333 38.847 26.64 40.1803 27.04C41.5403 27.4133 42.8736 27.6 44.1803 27.6C45.6203 27.6 46.6336 27.4267 47.2203 27.08C47.8336 26.7333 48.1403 26.2533 48.1403 25.64C48.1403 25.1333 47.9003 24.76 47.4203 24.52C46.967 24.2533 46.3536 24.0533 45.5803 23.92C44.807 23.7867 43.9536 23.6533 43.0203 23.52C42.1136 23.3867 41.1936 23.2133 40.2603 23C39.327 22.76 38.4736 22.4133 37.7003 21.96C36.927 21.5067 36.3003 20.8933 35.8203 20.12C35.367 19.3467 35.1403 18.3467 35.1403 17.12C35.1403 15.76 35.527 14.56 36.3003 13.52C37.1003 12.48 38.247 11.6667 39.7403 11.08C41.2336 10.4667 43.0203 10.16 45.1003 10.16C46.567 10.16 48.0603 10.32 49.5803 10.64C51.1003 10.96 52.367 11.4267 53.3803 12.04L51.3003 16.48C50.2603 15.8667 49.207 15.4533 48.1403 15.24C47.1003 15 46.087 14.88 45.1003 14.88C43.7136 14.88 42.7003 15.0667 42.0603 15.44C41.4203 15.8133 41.1003 16.2933 41.1003 16.88C41.1003 17.4133 41.327 17.8133 41.7803 18.08C42.2603 18.3467 42.887 18.56 43.6603 18.72C44.4336 18.88 45.2736 19.0267 46.1803 19.16C47.1136 19.2667 48.047 19.44 48.9803 19.68C49.9136 19.92 50.7536 20.2667 51.5003 20.72C52.2736 21.1467 52.9003 21.7467 53.3803 22.52C53.8603 23.2667 54.1003 24.2533 54.1003 25.48C54.1003 26.8133 53.7003 28 52.9003 29.04C52.1003 30.0533 50.9403 30.8533 49.4203 31.44C47.927 32.0267 46.1003 32.32 43.9403 32.32ZM68.4191 32V10.48H74.3791V16.56L73.5391 14.8C74.1791 13.28 75.2057 12.1333 76.6191 11.36C78.0324 10.56 79.7524 10.16 81.7791 10.16V15.92C81.5124 15.8933 81.2724 15.88 81.0591 15.88C80.8457 15.8533 80.6191 15.84 80.3791 15.84C78.6724 15.84 77.2857 16.3333 76.2191 17.32C75.1791 18.28 74.6591 19.7867 74.6591 21.84V32H68.4191ZM94.7256 32.32C92.939 32.32 91.339 31.9733 89.9256 31.28C88.539 30.5867 87.459 29.5333 86.6856 28.12C85.9123 26.68 85.5256 24.8533 85.5256 22.64V10.48H91.7656V21.72C91.7656 23.5067 92.139 24.8267 92.8856 25.68C93.659 26.5067 94.739 26.92 96.1256 26.92C97.0856 26.92 97.939 26.72 98.6856 26.32C99.4323 25.8933 100.019 25.2533 100.446 24.4C100.872 23.52 101.086 22.4267 101.086 21.12V10.48H107.326V32H101.406V26.08L102.486 27.8C101.766 29.2933 100.699 30.4267 99.2856 31.2C97.899 31.9467 96.379 32.32 94.7256 32.32Z" fill="#959696"/>
<path d="M60.3103 32.32C59.2436 32.32 58.3236 31.96 57.5503 31.24C56.8036 30.4933 56.4303 29.5467 56.4303 28.4C56.4303 27.2533 56.8036 26.3333 57.5503 25.64C58.3236 24.92 59.2436 24.56 60.3103 24.56C61.4036 24.56 62.3236 24.92 63.0703 25.64C63.817 26.3333 64.1903 27.2533 64.1903 28.4C64.1903 29.5467 63.817 30.4933 63.0703 31.24C62.3236 31.96 61.4036 32.32 60.3103 32.32Z" fill="#00B6CC"/>
</svg>
